# xmcd
#
# Track frame offsets:
#	150
#	17521
#	34606
#	45534
#	56722
#	78493
#	95454
#	113203
#	131316
#	143500
#	154426
#	164663
#	182495
#	214957
#	232308
#	240537
#	250190
#	250576
#	267717
#	308100
#
# Disc length: 4326 seconds
#
# Revision: 1
# Processed by: cddbd v1.5.2PL0 Copyright (c) Steve Scherf et al.
# Submitted via: audiograbber 1.83.01
#
DISCID=1510e414
DTITLE=Johan Eliasson - Bottleneck John - Blues Singer
DYEAR=1900
DGENRE=Acoustic Blues
TTITLE0=Come On In My Kitchen
TTITLE1=I Woke Up This Morning
TTITLE2=How Long, How Long Blues
TTITLE3=Stones In My Passway
TTITLE4=I Woke Up This Morning
TTITLE5=Gypsy Woman
TTITLE6=D-Jam
TTITLE7=Too Bad You Had To Leave
TTITLE8=Didn't My Lord Deliver Daniel
TTITLE9=We Can Never Tell
TTITLE10=G-Jam
TTITLE11=Come Back Baby
TTITLE12=Don't Let Nobody Drag Your Spirit Down
TTITLE13=Spirit In The Blues
TTITLE14=Blind Willie's Tune
TTITLE15=You Can't Get That Stuff No More
TTITLE16=Unknown
TTITLE17=Unknown
TTITLE18=Unknown
TTITLE19=Unknown
EXTD=
EXTT0=
EXTT1=
EXTT2=
EXTT3=
EXTT4=
EXTT5=
EXTT6=
EXTT7=
EXTT8=
EXTT9=
EXTT10=
EXTT11=
EXTT12=
EXTT13=
EXTT14=
EXTT15=
EXTT16=
EXTT17=
EXTT18=
EXTT19=
PLAYORDER=
